<svg xmlns="http://www.w3.org/2000/svg" width="54.174" height="65.191" viewBox="0 0 54.174 65.191"><g transform="translate(-567.913 6913.168)"><g transform="translate(567.913 -6913.168)"><path d="M466.36,69.919H432.238A5.246,5.246,0,0,1,427,64.677V9.983a5.246,5.246,0,0,1,5.238-5.243h35.546a5.246,5.246,0,0,1,5.238,5.243V27.529h-2.644V9.983a2.6,2.6,0,0,0-2.594-2.6H432.238a2.6,2.6,0,0,0-2.593,2.6V64.677a2.6,2.6,0,0,0,2.593,2.6H465.8Z" transform="translate(-427 -4.74)" fill="#7fa82a"/><rect width="33.228" height="17.174" transform="translate(6.226 7.855)" fill="#7fa82a"/><rect width="25.387" height="9.893" transform="translate(6.226 35.483)" fill="#7fa82a"/><path d="M438.51,108.678h13.174c1.127,0,1.129-2.469,0-2.469H438.51c-1.127,0-1.129,2.469,0,2.469" transform="translate(-432.397 -56.094)" fill="#fff"/><path d="M438.51,64.647h30.167c1.127,0,1.129-2.469,0-2.469H438.51c-1.127,0-1.129,2.469,0,2.469" transform="translate(-432.397 -33.81)" fill="#fff"/><path d="M438.51,120.207h13.174c1.127,0,1.129-2.469,0-2.469H438.51c-1.127,0-1.129,2.469,0,2.469" transform="translate(-432.397 -61.928)" fill="#fff"/><path d="M480.008,108.678h11.975c1.024,0,1.026-2.469,0-2.469H480.008c-1.024,0-1.026,2.469,0,2.469" transform="translate(-453.438 -56.094)" fill="#fff"/><path d="M480.085,120.207h13.174c1.128,0,1.129-2.469,0-2.469H480.085c-1.128,0-1.13,2.469,0,2.469" transform="translate(-453.438 -61.928)" fill="#fff"/><path d="M515.662,67.284a9.587,9.587,0,1,0-16.414.01A2.55,2.55,0,0,0,498,69.481v5.082a2.554,2.554,0,0,0,2.55,2.551h.217l2.384,15.522h0a1.9,1.9,0,0,0,1.891,1.6h5.008a1.913,1.913,0,0,0,1.894-1.626l2.2-15.5h.231a2.554,2.554,0,0,0,2.55-2.551V69.481a2.549,2.549,0,0,0-1.262-2.2M509.943,92.2h-4.792l-2.295-14.944h9.2Zm-2.491-36.771a6.919,6.919,0,0,1,5.2,11.5h-10.39a6.919,6.919,0,0,1,5.195-11.5m7.4,19.134a.482.482,0,0,1-.481.482h-13.82a.482.482,0,0,1-.481-.482V69.481a.482.482,0,0,1,.481-.482h13.82a.482.482,0,0,1,.481.482Z" transform="translate(-462.865 -29.049)" fill="#7fa82a"/><path d="M453.468,39.08,451.2,35.689v3.28h-1.468V33.282h1.728l2.054,3.169V33.282h1.468v5.631Z" transform="translate(-438.505 -19.185)" fill="#fff"/><path d="M462.278,33.282h3.68l-.093,1.115-1.923-.018V35.5h1.747l-.093,1.059-1.654-.019v1.3l2.165-.019-.093,1.143h-3.736Z" transform="translate(-444.854 -19.186)" fill="#fff"/><path d="M475.179,35.443l-1.189,3.336h-1.7l-1.245-5.659,1.6-.214.762,4.135,1.031-3.791,1.552-.167,1.143,3.9.669-3.894h1.5L478,38.778h-1.7Z" transform="translate(-449.291 -18.995)" fill="#fff"/><path d="M488.7,34.736c0-1.087.846-1.812,2.314-1.812a7.465,7.465,0,0,1,1.626.2l-.371,1.319a5.532,5.532,0,0,0-1.478-.353c-.539,0-.641.241-.641.279,0,.251-.009.483.883.836,1.2.446,1.8.911,1.8,1.766a2.124,2.124,0,0,1-2.323,2,12.266,12.266,0,0,1-1.9-.251l.2-1.431a4.627,4.627,0,0,0,1.84.474c.511,0,.651-.1.651-.26,0-.334-.3-.548-.911-.827-1.385-.595-1.691-1.134-1.691-1.933" transform="translate(-458.183 -19.005)" fill="#fff"/></g></g></svg>