<svg id="Grupo_28216" data-name="Grupo 28216" xmlns="http://www.w3.org/2000/svg" width="11.74" height="16.158" viewBox="0 0 11.74 16.158">
  <path id="Trazado_200" data-name="Trazado 200" d="M5.8,16.153A8.262,8.262,0,0,1,4.492,16.1a1.012,1.012,0,0,1-.8-.948A1.356,1.356,0,0,1,3.686,15c.02-.26-.084-.36-.355-.339-.286.023-.391-.1-.4-.391-.006-.409-.009-.818,0-1.227a3.427,3.427,0,0,0-.639-1.936C1.784,10.324,1.181,9.6.74,8.766A5.557,5.557,0,0,1,.085,6.955,6.72,6.72,0,0,1,.035,5.23,6.056,6.056,0,0,1,.51,3.483a5.957,5.957,0,0,1,1.379-1.9A6.111,6.111,0,0,1,3.778.4a6.752,6.752,0,0,1,1.5-.339A5.112,5.112,0,0,1,7.924.394a5.7,5.7,0,0,1,2.5,1.794,5.585,5.585,0,0,1,1.121,2.147A6.07,6.07,0,0,1,11.7,6.578a5.716,5.716,0,0,1-.438,1.65,11.462,11.462,0,0,1-.943,1.631c-.368.558-.8,1.074-1.113,1.669a3.224,3.224,0,0,0-.386,1.318c-.027.45,0,.9-.012,1.354-.006.3-.064.525-.481.469-.219-.03-.288.065-.272.271a1.044,1.044,0,0,1-.622,1.111.983.983,0,0,1-.438.1H5.8M5.863,12.5v0c.656,0,1.313-.008,1.969,0,.193,0,.3-.06.3-.243a1.921,1.921,0,0,1,.233-.689A9.132,9.132,0,0,1,9.427,9.83a8.3,8.3,0,0,0,1.439-2.756,5.475,5.475,0,0,0,.023-2.3A4.708,4.708,0,0,0,10.354,3.4,4.942,4.942,0,0,0,8.186,1.329,5.618,5.618,0,0,0,6.5.823a4.728,4.728,0,0,0-2.208.2,5.06,5.06,0,0,0-2.614,1.9A5.943,5.943,0,0,0,.9,4.5a4.307,4.307,0,0,0-.14,1.054,4.7,4.7,0,0,0,.3,2.139,9.548,9.548,0,0,0,1.19,2.06,6.817,6.817,0,0,1,1.37,2.578c.029.143.1.17.227.169.673-.005,1.347,0,2.02,0m.009,1.456H7.557c.493,0,.484,0,.494-.5,0-.182-.051-.226-.228-.225-1.209.008-2.418,0-3.627,0-.515,0-.508,0-.508.509,0,.17.051.214.216.212.655-.009,1.311,0,1.967,0m0,1.432v0h.944c.46,0,.54-.093.517-.561-.006-.118-.035-.163-.16-.162-.867,0-1.734,0-2.6,0-.049,0-.126-.014-.137.037a.867.867,0,0,0,.006.5.306.306,0,0,0,.31.181c.374-.007.748,0,1.122,0" transform="translate(0 0)"/>
  <path id="Trazado_201" data-name="Trazado 201" d="M43.171,46.892a2.717,2.717,0,0,1-2.507-1.84,2.834,2.834,0,0,1,1.319-3.644,2.9,2.9,0,0,1,3.622.655.4.4,0,0,1,.027.586.382.382,0,0,1-.549-.09,2.231,2.231,0,0,0-2.061-.732A2.094,2.094,0,0,0,41.489,42.9a2.2,2.2,0,0,0-.136,1.863,2.051,2.051,0,0,0,.981,1.134,2.19,2.19,0,0,0,1.838.142,2.3,2.3,0,0,0,.923-.646.361.361,0,0,1,.53-.084.421.421,0,0,1,.04.536,2.62,2.62,0,0,1-.779.669,2.693,2.693,0,0,1-1.713.377" transform="translate(-37.536 -38.086)" fill="#7fa82a"/>
</svg>
