<svg xmlns="http://www.w3.org/2000/svg" width="59.908" height="59.445" viewBox="0 0 59.908 59.445"><g transform="translate(-1035.592 6913.857)"><g transform="translate(1035.592 -6913.857)"><path d="M904.143,19.176a10.977,10.977,0,0,0-20.9-4.705,25.238,25.238,0,0,0-33.379,32.608,10.976,10.976,0,1,0,15.182,14.453,25.236,25.236,0,0,0,32.1-32.128,11,11,0,0,0,7-10.229M857.586,65.089a8.564,8.564,0,0,1-4.746,0V62.614a1.885,1.885,0,0,1,.735-1.487,3.891,3.891,0,0,0,3.322.038,1.883,1.883,0,0,1,.689,1.449Zm-3.957-7.509V55.2a1.647,1.647,0,1,1,3.293,0V57.58a1.628,1.628,0,0,1-.035.337,1.648,1.648,0,0,1-3.258-.337m6.915,6.02v-.986a4.835,4.835,0,0,0-1.606-3.6,4.082,4.082,0,0,0,.152-.483,3.875,3.875,0,0,0,.124-.955V55.2a3.938,3.938,0,0,0-7.876,0V57.58a3.909,3.909,0,0,0,.245,1.352,4.84,4.84,0,0,0-1.7,3.682V63.6a8.768,8.768,0,1,1,13.093-2.892,8.848,8.848,0,0,1-2.432,2.892m12.749-2.9a22.923,22.923,0,0,1-7.462-1.248A10.978,10.978,0,0,0,851.9,46.2a23.02,23.02,0,0,1,30.6-29.629A10.97,10.97,0,0,0,895.006,30,23.025,23.025,0,0,1,873.293,60.7M891.583,23.7a3.888,3.888,0,0,0,3.242-.039,1.883,1.883,0,0,1,.712,1.468V27.6a8.727,8.727,0,0,1-1.4.279,8.859,8.859,0,0,1-.97.057,8.737,8.737,0,0,1-2.373-.335V25.125a1.883,1.883,0,0,1,.712-1.468c.027.013.053.027.08.039m-.066-3.6V17.714a1.647,1.647,0,1,1,3.293,0v2.378a1.624,1.624,0,0,1-.033.322,1.645,1.645,0,0,1-3.228,0,1.674,1.674,0,0,1-.018-.176c0-.049-.015-.1-.015-.146m6.977,6.02v-.987a4.838,4.838,0,0,0-1.653-3.638,3.911,3.911,0,0,0,.26-1.395V17.714a3.938,3.938,0,1,0-7.876,0v2.378a3.924,3.924,0,0,0,.168,1.132c.027.089.06.176.093.263a4.836,4.836,0,0,0-1.653,3.638v.987a8.761,8.761,0,1,1,10.661,0" transform="translate(-844.234 -8.197)" fill="#7fa82a"/><path d="M900.229,54.248c0-.278,0-.553,0-.828a7.522,7.522,0,0,0-.24-1.947,7.45,7.45,0,0,0-11.366-4.325,7.232,7.232,0,0,0-3.279,5.546c-.046.528-.044,1.047-.041,1.549a2.7,2.7,0,0,0-2.378,2.578c-.018.851-.018,1.722,0,2.587a2.6,2.6,0,0,0,2.288,2.541,15.6,15.6,0,0,0,2.4.026,2.041,2.041,0,0,0,1.883-2.058q.01-1.811,0-3.622a2.066,2.066,0,0,0-1.189-1.863q0-.532,0-1.063A4.428,4.428,0,0,1,891.793,49a4.484,4.484,0,0,1,5.1,2.645,6.808,6.808,0,0,1,.328,2.675c0,.04,0,.081,0,.122a2.015,2.015,0,0,0-1.187,1.854q-.011,1.811,0,3.622a2.025,2.025,0,0,0,1.087,1.81c.034.019.068.036.1.051v.782h-4.386a1.6,1.6,0,0,0-1.145.453,1.478,1.478,0,0,0-.427,1.056,1.509,1.509,0,0,0,1.576,1.5h4.638a2.7,2.7,0,0,0,2.752-2.749q0-.424,0-.849a2.689,2.689,0,0,0,2.382-2.718q.005-1.138,0-2.277a2.664,2.664,0,0,0-2.383-2.732" transform="translate(-863.81 -27.265)" fill="#fff"/></g></g></svg>