<svg xmlns="http://www.w3.org/2000/svg" width="68.134" height="58.756" viewBox="0 0 68.134 58.756"><g transform="translate(-796.685 6913.168)"><g transform="translate(796.685 -6913.168)"><g transform="translate(0 0)"><path d="M648.2,23.427a1.435,1.435,0,1,0-1.435,1.435,1.435,1.435,0,0,0,1.435-1.435" transform="translate(-636.22 -16.869)" fill="#fff"/><path d="M658.193,23.427a1.435,1.435,0,1,0-1.435,1.435,1.435,1.435,0,0,0,1.435-1.435" transform="translate(-641.277 -16.869)" fill="#fff"/><path d="M668.185,23.427a1.435,1.435,0,1,0-1.435,1.435,1.435,1.435,0,0,0,1.435-1.435" transform="translate(-646.333 -16.869)" fill="#fff"/><path d="M692.061,11.62H639.047a3.809,3.809,0,0,0-3.8,3.8V66.572a3.809,3.809,0,0,0,3.8,3.8h53.015a3.809,3.809,0,0,0,3.8-3.8V15.424a3.809,3.809,0,0,0-3.8-3.8m-53.015,2.569h53.015a1.237,1.237,0,0,1,1.236,1.236v2.1H658.671a3.564,3.564,0,0,0-3.56,3.56V22.1a.992.992,0,0,1-.991.991h-16.31V15.424a1.237,1.237,0,0,1,1.236-1.236m53.015,53.619H639.047a1.237,1.237,0,0,1-1.236-1.236V25.657h16.31a3.564,3.564,0,0,0,3.56-3.56V21.083a.992.992,0,0,1,.991-.991H693.3v46.48a1.237,1.237,0,0,1-1.236,1.236" transform="translate(-631.113 -11.62)" fill="#7fa82a"/><path d="M734.388,57.638H729l-2.61,2.677-2.677-2.677H708.757a1.372,1.372,0,0,1-1.371-1.372V41.076a1.372,1.372,0,0,1,1.371-1.372h25.631a1.372,1.372,0,0,1,1.372,1.372v15.19a1.372,1.372,0,0,1-1.372,1.372" transform="translate(-667.626 -25.834)" fill="#fff"/><path d="M628.407,90.759h5.99l2.9,2.976,2.976-2.976H656.9a1.525,1.525,0,0,0,1.525-1.525V72.344a1.525,1.525,0,0,0-1.525-1.525h-28.5a1.525,1.525,0,0,0-1.525,1.525v16.89a1.525,1.525,0,0,0,1.525,1.525" transform="translate(-626.882 -41.581)" fill="#fff"/><path d="M653.724,80.285H636.457a1.26,1.26,0,1,1,0-2.52h17.267a1.26,1.26,0,1,1,0,2.52" transform="translate(-631.091 -45.096)" fill="#7fa82a"/><path d="M653.724,90.348H636.457a1.26,1.26,0,1,1,0-2.52h17.267a1.26,1.26,0,1,1,0,2.52" transform="translate(-631.091 -50.189)" fill="#7fa82a"/><path d="M644.678,100.411h-8.221a1.26,1.26,0,1,1,0-2.52h8.221a1.26,1.26,0,1,1,0,2.52" transform="translate(-631.091 -55.282)" fill="#7fa82a"/><path d="M736.873,47.781H719.606a1.26,1.26,0,1,1,0-2.52h17.267a1.26,1.26,0,1,1,0,2.52" transform="translate(-673.173 -28.645)" fill="#7fa82a"/><path d="M736.873,57.844H719.606a1.26,1.26,0,1,1,0-2.52h17.267a1.26,1.26,0,1,1,0,2.52" transform="translate(-673.173 -33.739)" fill="#7fa82a"/><path d="M727.828,67.907h-8.221a1.26,1.26,0,1,1,0-2.52h8.221a1.26,1.26,0,1,1,0,2.52" transform="translate(-673.173 -38.831)" fill="#7fa82a"/></g></g></g></svg>