<?xml version="1.0" encoding="UTF-8"?>
<svg id="Capa_2" data-name="Capa 2" xmlns="http://www.w3.org/2000/svg" viewBox="0 0 180.28 180.28">
  <defs>
    <style>
      .cls-1 {
        fill: none;
      }

      .cls-2 {
        fill: #7fa82a;
      }

      .cls-3 {
        fill: #1b2242;
      }
    </style>
  </defs>
  <g id="Capa_1-2" data-name="Capa 1">
    <g>
      <circle class="cls-2" cx="90.14" cy="90.14" r="90.14"/>
      <g>
        <path class="cls-1" d="m120.25,76.89c-.18-.11-.36-.21-.54-.32v11.76l7.98-6.7c-1.99-1.53-5.21-3.43-7.43-4.75Z"/>
        <path class="cls-1" d="m88.09,100.72c1.23-.85,2.89-.84,4.11,0l6.98,4.84,15.53-13.04v-38.46c0-1.9-1.55-3.45-3.45-3.45h-42.71c-1.9,0-3.45,1.55-3.45,3.45v38.8l15.02,13.33,7.97-5.48Zm-10.37-40.48h24.76c1.57,0,2.83,1.27,2.83,2.83s-1.27,2.83-2.83,2.83h-24.76c-1.57,0-2.83-1.27-2.83-2.83s1.27-2.83,2.83-2.83Zm0,11.91h24.76c1.57,0,2.83,1.27,2.83,2.83s-1.27,2.83-2.83,2.83h-24.76c-1.57,0-2.83-1.27-2.83-2.83s1.27-2.83,2.83-2.83Zm-2.83,14.74c0-1.57,1.27-2.83,2.83-2.83h14.65c1.57,0,2.83,1.27,2.83,2.83s-1.27,2.83-2.83,2.83h-14.65c-1.57,0-2.83-1.27-2.83-2.83Z"/>
        <path class="cls-1" d="m60.1,76.55c-4.19,2.16-6.58,3.74-7.88,4.9l7.88,6.99v-11.89Z"/>
        <path class="cls-3" d="m122.8,72.59c-1.02-.6-2.05-1.22-3.08-1.84v-16.67c0-4.66-3.79-8.45-8.45-8.45h-42.71c-4.66,0-8.45,3.79-8.45,8.45v16.89c-9.06,4.41-14.27,7.97-14.27,12.54v42.71c0,2.55,1.13,4.93,3.11,6.55,1.5,1.23,3.4,1.91,5.35,1.91h71.72c4.66,0,8.45-3.79,8.45-8.45v-42.71c0-4.04-5.14-7.07-11.66-10.92Zm-3.08,3.98c.18.11.36.22.54.32,2.22,1.31,5.45,3.22,7.43,4.75l-7.98,6.7v-11.76Zm-54.61-22.5c0-1.9,1.55-3.45,3.45-3.45h42.71c1.9,0,3.45,1.55,3.45,3.45v38.46l-15.53,13.04-6.98-4.84c-1.23-.85-2.88-.85-4.11,0l-7.97,5.48-15.02-13.33v-38.8Zm-5,22.48v11.89l-7.88-6.99c1.3-1.16,3.68-2.74,7.88-4.9Zm-9.25,49.79s-.01-.09-.01-.13v-39.31l9.27,8.22,5,4.44.7.62,1.9,1.69,8.17,7.25-6.44,4.43-3.19,2.2-.96.66-4.2,2.89-10.25,7.05Zm4,3.32l7.39-5.09h0s14.63-10.07,14.63-10.07h0l13.26-9.13,14.42,10,10.67,7.4,9.91,6.88H54.84Zm74.61-3.45c0,.11-.02.22-.03.33l-6.05-4.2h0s-10.63-7.37-10.63-7.37h0l-9.3-6.45,8.8-7.38h0l9.68-8.13,7.54-6.33v39.53Z"/>
        <path class="cls-3" d="m77.72,65.91h24.76c1.57,0,2.83-1.27,2.83-2.83s-1.27-2.83-2.83-2.83h-24.76c-1.57,0-2.83,1.27-2.83,2.83s1.27,2.83,2.83,2.83Z"/>
        <path class="cls-3" d="m77.72,77.82h24.76c1.57,0,2.83-1.27,2.83-2.83s-1.27-2.83-2.83-2.83h-24.76c-1.57,0-2.83,1.27-2.83,2.83s1.27,2.83,2.83,2.83Z"/>
        <path class="cls-3" d="m95.2,86.89c0-1.57-1.27-2.83-2.83-2.83h-14.65c-1.57,0-2.83,1.27-2.83,2.83s1.27,2.83,2.83,2.83h14.65c1.57,0,2.83-1.27,2.83-2.83Z"/>
      </g>
    </g>
  </g>
</svg>