<svg xmlns="http://www.w3.org/2000/svg" width="65.737" height="53.509" viewBox="0 0 65.737 53.509"><g transform="translate(-320.733 6910.544)"><g transform="translate(320.733 -6910.544)"><path d="M216.651,97.364a1.948,1.948,0,0,0,.055-.446V77.6a1.96,1.96,0,0,0-1.96-1.96h-3.92a1.96,1.96,0,0,0-1.96,1.96v19.32a1.969,1.969,0,0,0,.044.41c1.743,0,3.489.035,5.228.035Z" transform="translate(-205.13 -46.362)" fill="#7fa82a"/><path d="M267.919,102.275V88.181a1.96,1.96,0,0,0-1.96-1.96h-3.92a1.96,1.96,0,0,0-1.96,1.96v14.093a1.945,1.945,0,0,0,.055.446h7.729a1.952,1.952,0,0,0,.055-.446" transform="translate(-231.049 -51.719)" fill="#7fa82a"/><path d="M319.265,97.268a1.955,1.955,0,0,0,.055-.445V77.409a1.96,1.96,0,0,0-1.96-1.96h-3.92a1.96,1.96,0,0,0-1.96,1.96V96.822a1.969,1.969,0,0,0,.055.445h7.729Z" transform="translate(-257.063 -46.266)" fill="#7fa82a"/><path d="M265.846,86.918H252.088a3.169,3.169,0,0,0,.2-1.1V58.192a3.2,3.2,0,0,0-3.2-3.195h-4.573a3.2,3.2,0,0,0-3.195,3.195V85.819a3.168,3.168,0,0,0,.2,1.1H226.795a3.18,3.18,0,0,0,.2-1.1V58.192A3.2,3.2,0,0,0,223.8,55h-4.573a3.2,3.2,0,0,0-3.2,3.195V85.819a3.169,3.169,0,0,0,.2,1.1H210.31c-1.739,0-3.484-.037-5.227-.035-.828,0-1.655.007-2.48.035h-.108a1.235,1.235,0,0,0,0,2.469H258.03c2.564,0,5.145.085,7.708,0,.036,0,.072,0,.108,0a1.235,1.235,0,0,0,0-2.469m-41.323-1.1a.726.726,0,0,1-.725.726h-4.573a.726.726,0,0,1-.725-.726V58.192a.726.726,0,0,1,.725-.725H223.8a.726.726,0,0,1,.725.725Zm25.294,0a.726.726,0,0,1-.726.726h-4.573a.726.726,0,0,1-.725-.726V58.192a.726.726,0,0,1,.725-.725h4.573a.726.726,0,0,1,.726.725Z" transform="translate(-201.302 -35.916)" fill="#fff"/><path d="M262.924,24.062a4.34,4.34,0,0,0-3.055,1.255L254.5,22.183a4.356,4.356,0,1,0-8.02.581l-6.673,7.022a4.324,4.324,0,0,0-4.677.2l-6.677-6.915a4.355,4.355,0,1,0-7.919-1.457l-5.7,3.825a4.4,4.4,0,1,0,1.306,1.86l5.44-3.653a4.326,4.326,0,0,0,5.182.948l6.9,7.15a4.355,4.355,0,1,0,7.74-.351L248,24.462a4.331,4.331,0,0,0,5.241-.384l5.481,3.2a4.354,4.354,0,1,0,4.2-3.218M214.14,28.791a2.084,2.084,0,1,1-2.084-2.084,2.1,2.1,0,0,1,2.071,1.951c0,.045.013.088.013.133m9.378-6.44a1.827,1.827,0,1,1,1.278.451,2.073,2.073,0,0,1-1.278-.451m16.2,11.2a2.087,2.087,0,0,1-2.084,2.084,2.019,2.019,0,0,1-.226-.023h0a2.074,2.074,0,0,1-1.84-1.906c0-.052-.016-.1-.016-.155a2.082,2.082,0,0,1,1.206-1.883,2.108,2.108,0,0,1,2.962,1.883m11.309-10.771a1.955,1.955,0,0,1-1.4-.029,2.08,2.08,0,0,1-1.335-1.893c0-.016,0-.032,0-.048a2.084,2.084,0,0,1,4.169,0c0,.056-.012.11-.017.165a2.076,2.076,0,0,1-1.415,1.8m11.9,7.722a2.081,2.081,0,0,1-2.073-1.98c0-.036-.011-.069-.011-.1a2.084,2.084,0,1,1,2.084,2.084" transform="translate(-204.54 -16.362)" fill="#7fa82a"/></g></g></svg>