<?xml version="1.0" encoding="UTF-8"?>
<svg id="Capa_2" data-name="Capa 2" xmlns="http://www.w3.org/2000/svg" viewBox="0 0 180.28 180.28">
  <defs>
    <style>
      .cls-1 {
        fill: #7fa82a;
      }

      .cls-2 {
        fill: #1b2242;
      }
    </style>
  </defs>
  <g id="Capa_1-2" data-name="Capa 1">
    <g>
      <circle class="cls-1" cx="90.14" cy="90.14" r="90.14"/>
      <g>
        <path class="cls-2" d="m123.94,95.53v15.88c-6.4,3.37-12.79,6.75-19.19,10.12v-37.34c0-3.22-5-3.22-5,0v37c-5.94-3.36-11.89-6.71-17.83-10.07-.77-.44-1.54-.89-2.32-1.32h.39v-58.36c2.17,1.68,4.34,3.36,6.5,5.05,1.07.83,2.5,1.04,3.54,0,.86-.86,1.07-2.7,0-3.54-3.65-2.83-7.31-5.67-10.96-8.5-.95-.74-1.93-.93-3.03-.39-7.05,3.47-14.09,6.94-21.14,10.4-1.02.5-2.04,1-3.05,1.5-.77.38-1.24,1.33-1.24,2.16v66.71c0,1.95,2.11,3.05,3.76,2.16,7.17-3.86,14.34-7.72,21.52-11.59.59-.32,1.17-.63,1.76-.95,6.75,3.81,13.5,7.63,20.25,11.44,1.06.6,2.1,1.24,3.19,1.8,1.51.77,2.63.04,3.91-.63,4.12-2.17,8.24-4.34,12.35-6.52,3.45-1.82,6.9-3.64,10.35-5.46.77-.41,1.24-1.31,1.24-2.16v-17.39c0-3.22-5-3.22-5,0Zm-61.66,21.52c-2.22,1.2-4.44,2.39-6.66,3.59v-60.98c6.46-3.18,12.92-6.36,19.38-9.54v59.67h.73c-.29.16-.59.33-.89.49-4.19,2.25-8.37,4.51-12.56,6.76Z"/>
        <path class="cls-2" d="m120.44,49.21c-4.85,0-8.8,3.95-8.8,8.8s3.95,8.8,8.8,8.8,8.8-3.95,8.8-8.8-3.95-8.8-8.8-8.8Zm0,13.61c-2.65,0-4.8-2.15-4.8-4.8s2.15-4.8,4.8-4.8,4.8,2.15,4.8,4.8-2.16,4.8-4.8,4.8Z"/>
        <path class="cls-2" d="m135.61,44.96c-2.73-3.43-6.81-5.72-11.04-6.73-3.78-.9-7.36-.57-11,.69-3.45,1.19-6.71,3.15-9.01,6.04-3.88,4.88-5.54,11.33-4.56,17.69.97,6.28,4.99,15.7,18.62,24.9l1.38,1.05,1.56-1.05c13.63-9.19,17.65-18.61,18.62-24.9.98-6.36-.68-12.81-4.56-17.69Zm.61,17.08c-1.18,7.67-6.76,15.14-16.14,21.65-9.37-6.51-14.95-13.98-16.14-21.65-.81-5.26.55-10.58,3.74-14.59,5.43-6.83,15.67-7.28,22.42-2.27.88.65,1.69,1.41,2.37,2.27,3.19,4.01,4.55,9.33,3.74,14.59Z"/>
      </g>
    </g>
  </g>
</svg>