<svg xmlns="http://www.w3.org/2000/svg" xmlns:xlink="http://www.w3.org/1999/xlink" width="17.706" height="14.766" viewBox="0 0 17.706 14.766">
  <defs>
    <clipPath id="clip-path">
      <rect id="Rectángulo_237" data-name="Rectángulo 237" width="17.706" height="14.766" fill="none"/>
    </clipPath>
  </defs>
  <g id="Grupo_28156" data-name="Grupo 28156" clip-path="url(#clip-path)">
    <path id="Trazado_197" data-name="Trazado 197" d="M3.139,12.173v1.115A3.51,3.51,0,0,1,.85,12.9,1.974,1.974,0,0,1,.008,11.26Q0,6.654.009,2.047A2.009,2.009,0,0,1,2.074.005c1.3-.005,2.608,0,3.912,0a.77.77,0,0,1,.6.255c.342.354.7.694,1.039,1.05a.51.51,0,0,0,.407.168q3.769-.007,7.538,0a2.025,2.025,0,0,1,2.068,1.546,2.723,2.723,0,0,1,.069.642q.007,3.724,0,7.448a2.054,2.054,0,0,1-2.19,2.19h-.94V12.181c.317,0,.625,0,.933,0,.739,0,1.078-.34,1.078-1.077q0-3.724,0-7.448a.931.931,0,0,0-1.061-1.067c-2.573,0-5.147,0-7.72,0a.992.992,0,0,1-.8-.331c-.327-.357-.676-.693-1.026-1.027a.467.467,0,0,0-.29-.121q-1.813-.01-3.627,0a.9.9,0,0,0-.934.931q-.006,4.606,0,9.213a.878.878,0,0,0,.894.913c.368.013.737,0,1.116,0" transform="translate(0 -0.001)"/>
    <path id="Trazado_198" data-name="Trazado 198" d="M94.757,85.592H95.88v4.654l.071.036.994-1.08.781.829c-.025.028-.072.087-.125.14q-.887.89-1.776,1.779a.594.594,0,0,1-.995.008q-.889-.888-1.776-1.779c-.054-.054-.1-.113-.157-.173l.8-.76.977,1.051.087-.049Z" transform="translate(-86.468 -79.669)"/>
    <path id="Trazado_199" data-name="Trazado 199" d="M80.949,170.786h1.078a18.362,18.362,0,0,1-.015,1.918,1.2,1.2,0,0,1-1.222,1.024q-2.422.01-4.845,0a1.26,1.26,0,0,1-1.259-1.254c-.01-.553,0-1.106,0-1.679h1.1v.457q0,.493,0,.986c0,.36.028.388.379.388h4.2c.086,0,.173-.007.259,0,.252.023.336-.1.331-.338-.01-.492,0-.985,0-1.5" transform="translate(-69.512 -158.967)"/>
  </g>
</svg>
