<svg xmlns="http://www.w3.org/2000/svg" width="50.961" height="65.241" viewBox="0 0 50.961 65.241"><g transform="translate(-85.5 6916.41)"><g transform="translate(85.5 -6916.41)"><path d="M45.023,26.2A10.718,10.718,0,0,1,34.759,37.008a10.837,10.837,0,0,1-1.709-21.6A10.738,10.738,0,0,1,45.023,26.2M32.4,27.454c-.485-.423-.983-.836-1.456-1.277s-.907-.952-1.405-1.374a1.327,1.327,0,0,0-1.78-.033,1.19,1.19,0,0,0-.046,1.74,30.153,30.153,0,0,0,3.836,3.834c.621.517,1.054.439,1.652-.095.032-.028.058-.062.087-.092q3.072-3.072,6.143-6.147c.637-.64.7-1.358.182-1.866a1.335,1.335,0,0,0-1.985.118c-.465.462-.926.928-1.391,1.39-1.32,1.309-2.641,2.617-3.837,3.8" transform="translate(-11.845 -7.773)" fill="#7fa82a"/><path d="M36.443,34.011c1.2-1.184,2.516-2.492,3.837-3.8.465-.462.927-.928,1.391-1.39a1.335,1.335,0,0,1,1.985-.118c.514.508.455,1.226-.182,1.866q-3.065,3.08-6.143,6.147c-.03.03-.056.064-.087.092-.6.534-1.031.612-1.652.095a30.156,30.156,0,0,1-3.836-3.834,1.19,1.19,0,0,1,.046-1.74,1.327,1.327,0,0,1,1.78.033c.5.422.926.927,1.405,1.374s.971.854,1.456,1.277" transform="translate(-15.893 -14.33)" fill="#fff"/><path d="M45.8,6.394H44.567V5.158A5.162,5.162,0,0,0,39.411,0H5.157A5.162,5.162,0,0,0,0,5.158V53.692a5.162,5.162,0,0,0,5.157,5.156H6.394v1.237a5.162,5.162,0,0,0,5.157,5.157H45.8a5.162,5.162,0,0,0,5.157-5.157V11.551A5.162,5.162,0,0,0,45.8,6.394M2.473,53.692V5.158A2.686,2.686,0,0,1,5.157,2.474H39.411a2.686,2.686,0,0,1,2.683,2.683V53.692a2.686,2.686,0,0,1-2.683,2.683H5.157a2.686,2.686,0,0,1-2.683-2.683m46.014,6.393A2.687,2.687,0,0,1,45.8,62.769H11.55a2.687,2.687,0,0,1-2.683-2.684V58.848H39.411a5.162,5.162,0,0,0,5.156-5.156V8.867H45.8a2.686,2.686,0,0,1,2.683,2.683Z" transform="translate(0 -0.001)" fill="#7fa82a"/><path d="M12.62,77.308H31.193a1.235,1.235,0,0,0,0-2.469H12.62a1.235,1.235,0,0,0,0,2.469" transform="translate(-5.783 -37.876)" fill="#fff"/><path d="M12.62,90.159H43.98a1.235,1.235,0,0,0,0-2.469H12.62a1.235,1.235,0,0,0,0,2.469" transform="translate(-5.783 -44.38)" fill="#fff"/><path d="M12.62,103.009H43.98a1.235,1.235,0,0,0,0-2.469H12.62a1.235,1.235,0,0,0,0,2.469" transform="translate(-5.783 -50.884)" fill="#fff"/></g></g></svg>