<svg id="prev" xmlns="http://www.w3.org/2000/svg" width="14.701" height="11.734" viewBox="0 0 14.701 11.734">
  <path id="next" d="M6.534,11.546a.636.636,0,0,0,.058-.853l-.058-.067L2.286,6.518H14.034a.649.649,0,0,0,.082-1.294l-.082,0H.667a.668.668,0,0,0-.618.4.635.635,0,0,0,.087.639l.06.065,5.391,5.219a.682.682,0,0,0,.936.008l.009-.008ZM3.49,4.048l.066-.056L6.534,1.11a.637.637,0,0,0,0-.918.683.683,0,0,0-.878-.06L5.586.19,2.613,3.068c-.26.256,0,.919,0,.919s.611.256.877.06Z" transform="translate(0 0)" fill="#83878d"/>
  <path id="next-2" data-name="next" d="M6.482.187a.631.631,0,0,1,.057.846L6.482,1.1,2.268,5.174H13.921A.643.643,0,0,1,14,6.458l-.081,0H.662a.663.663,0,0,1-.613-.4A.631.631,0,0,1,.135,5.43l.059-.064L5.542.188A.677.677,0,0,1,6.47.18l.008.008ZM3.462,7.625l.066.056,2.954,2.858a.632.632,0,0,1,0,.911.678.678,0,0,1-.871.06l-.069-.058L2.592,8.6c-.258-.254,0-.912,0-.912s.606-.254.87-.06Z" transform="translate(0.059 0)" fill="#83878d"/>
</svg>
