<?xml version="1.0" encoding="UTF-8"?>
<svg id="Capa_2" data-name="Capa 2" xmlns="http://www.w3.org/2000/svg" viewBox="0 0 180.28 180.28">
  <defs>
    <style>
      .cls-1 {
        fill: #7fa82a;
      }

      .cls-2 {
        fill: #1b2242;
      }
    </style>
  </defs>
  <g id="Capa_1-2" data-name="Capa 1">
    <g>
      <circle class="cls-1" cx="90.14" cy="90.14" r="90.14"/>
      <path class="cls-2" d="m126.84,83.53h-3.33v-10.37c0-17.82-14.49-32.31-32.31-32.31h-1.8c-17.82,0-32.31,14.49-32.31,32.31v10.37h-3.66c-4.72,0-8.56,3.84-8.56,8.56v13.13c0,4.72,3.84,8.56,8.56,8.56h9.88c2.51,0,4.55-2.04,4.55-4.55v-21.15c0-2.51-2.04-4.55-4.55-4.55h-1.22v-10.37c0-15.06,12.25-27.31,27.31-27.31h1.8c15.06,0,27.31,12.25,27.31,27.31v10.37h-1.55c-2.51,0-4.55,2.04-4.55,4.55v21.15c0,2.51,2.04,4.55,4.55,4.55h1.55v7.28c0,.93.11,1.97,0,2.87-.21,1.71-1.84,2.65-3.45,2.7-5.92.2-11.88,0-17.8,0h-6.96c-3.22,0-3.22,5,0,5h18.08c2.23,0,4.47.05,6.7,0,2.94-.07,5.7-1.45,7.28-3.98.99-1.58,1.15-3.32,1.15-5.12v-8.76h3.33c4.72,0,8.56-3.84,8.56-8.56v-13.13c0-4.72-3.84-8.56-8.56-8.56Zm-63.97,25.26h-9.44c-1.96,0-3.56-1.6-3.56-3.56v-13.13c0-1.96,1.6-3.56,3.56-3.56h9.44v20.26Zm67.53-3.56c0,1.96-1.6,3.56-3.56,3.56h-9.44v-20.26h9.44c1.96,0,3.56,1.6,3.56,3.56v13.13Z"/>
    </g>
  </g>
</svg>